<?xml version="1.0" encoding="UTF-8" standalone="no"?>
<!DOCTYPE svg PUBLIC "-//W3C//DTD SVG 1.1//EN" "http://www.w3.org/Graphics/SVG/1.1/DTD/svg11.dtd">
<svg width="100%" height="100%" viewBox="0 0 134 82" version="1.1" xmlns="http://www.w3.org/2000/svg" xmlns:xlink="http://www.w3.org/1999/xlink" xml:space="preserve" xmlns:serif="http://www.serif.com/" style="fill-rule:evenodd;clip-rule:evenodd;stroke-linejoin:round;stroke-miterlimit:2;">
    <g id="Mesa-de-trabajo1" serif:id="Mesa de trabajo1" transform="matrix(0.668341,0,0,0.407744,0,0)">
        <rect x="0" y="0" width="200" height="200" style="fill:none;"/>
        <clipPath id="_clip1">
            <rect x="0" y="0" width="200" height="200"/>
        </clipPath>
        <g clip-path="url(#_clip1)">
            <g transform="matrix(-1.49624,0,0,2.45252,732.209,-1129.77)">
                <rect x="355.717" y="460.657" width="6.366" height="81.57" style="fill:white;"/>
                <g transform="matrix(0.181995,0,0,1,290.978,50.7423)">
                    <path d="M623.013,462.885C623.013,460.552 612.602,458.657 599.779,458.657L378.951,458.657C366.128,458.657 355.717,460.552 355.717,462.885L355.717,471.342C355.717,473.676 366.128,475.571 378.951,475.571L599.779,475.571C612.602,475.571 623.013,473.676 623.013,471.342L623.013,462.885Z" style="fill:white;"/>
                </g>
                <g transform="matrix(0.244236,0,0,1,268.838,66.6563)">
                    <path d="M623.013,462.885C623.013,460.552 615.255,458.657 605.7,458.657L373.03,458.657C363.475,458.657 355.717,460.552 355.717,462.885L355.717,471.342C355.717,473.676 363.475,475.571 373.03,475.571L605.7,475.571C615.255,475.571 623.013,473.676 623.013,471.342L623.013,462.885Z" style="fill:white;"/>
                </g>
                <g transform="matrix(0.5,0,0,1,177.859,34.8282)">
                    <path d="M623.013,462.885C623.013,460.552 619.223,458.657 614.556,458.657L364.174,458.657C359.507,458.657 355.717,460.552 355.717,462.885L355.717,471.342C355.717,473.676 359.507,475.571 364.174,475.571L614.556,475.571C619.223,475.571 623.013,473.676 623.013,471.342L623.013,462.885Z" style="fill:white;"/>
                </g>
                <g transform="matrix(0.290937,0,0,1,252.226,18.9141)">
                    <path d="M623.013,462.885C623.013,460.552 616.5,458.657 608.479,458.657L370.251,458.657C362.23,458.657 355.717,460.552 355.717,462.885L355.717,471.342C355.717,473.676 362.23,475.571 370.251,475.571L608.479,475.571C616.5,475.571 623.013,473.676 623.013,471.342L623.013,462.885Z" style="fill:white;"/>
                </g>
                <g transform="matrix(0.090716,0,0,1,323.448,2)">
                    <path d="M623.013,462.885C623.013,460.552 602.126,458.657 576.4,458.657L402.33,458.657C376.604,458.657 355.717,460.552 355.717,462.885L355.717,471.342C355.717,473.676 376.604,475.571 402.33,475.571L576.4,475.571C602.126,475.571 623.013,473.676 623.013,471.342L623.013,462.885Z" style="fill:white;"/>
                </g>
            </g>
        </g>
    </g>
</svg>
